<mxfile host="app.diagrams.net" modified="2024-03-08T01:26:19.215Z" agent="Mozilla/5.0 (X11; Ubuntu; Linux x86_64; rv:123.0) Gecko/20100101 Firefox/123.0" etag="TSxKt4eijQbgIjfCAvfr" version="24.0.2" type="device">
  <diagram name="Page-1" id="BX4TBZN42xeIkj2WdhsH">
    <mxGraphModel dx="1362" dy="795" grid="1" gridSize="10" guides="1" tooltips="1" connect="1" arrows="1" fold="1" page="1" pageScale="1" pageWidth="850" pageHeight="1100" math="0" shadow="0">
      <root>
        <mxCell id="0" />
        <mxCell id="1" parent="0" />
        <mxCell id="X19s_nvHzqkZ-q4jmWEB-7" style="edgeStyle=orthogonalEdgeStyle;rounded=0;orthogonalLoop=1;jettySize=auto;html=1;exitX=1;exitY=0.5;exitDx=0;exitDy=0;exitPerimeter=0;" edge="1" parent="1" source="X19s_nvHzqkZ-q4jmWEB-1" target="X19s_nvHzqkZ-q4jmWEB-2">
          <mxGeometry relative="1" as="geometry" />
        </mxCell>
        <mxCell id="X19s_nvHzqkZ-q4jmWEB-1" value="&lt;div&gt;Text&lt;/div&gt;&lt;div&gt;Corpus&lt;br&gt;&lt;/div&gt;" style="shape=cylinder3;whiteSpace=wrap;html=1;boundedLbl=1;backgroundOutline=1;size=15;fillColor=#dae8fc;strokeColor=#6c8ebf;sketch=1;curveFitting=1;jiggle=2;strokeWidth=3;" vertex="1" parent="1">
          <mxGeometry x="60" y="160" width="60" height="80" as="geometry" />
        </mxCell>
        <mxCell id="X19s_nvHzqkZ-q4jmWEB-8" style="edgeStyle=orthogonalEdgeStyle;rounded=0;orthogonalLoop=1;jettySize=auto;html=1;exitX=1;exitY=0.5;exitDx=0;exitDy=0;" edge="1" parent="1" source="X19s_nvHzqkZ-q4jmWEB-2" target="X19s_nvHzqkZ-q4jmWEB-3">
          <mxGeometry relative="1" as="geometry" />
        </mxCell>
        <mxCell id="X19s_nvHzqkZ-q4jmWEB-9" style="edgeStyle=orthogonalEdgeStyle;rounded=0;orthogonalLoop=1;jettySize=auto;html=1;exitX=0.5;exitY=1;exitDx=0;exitDy=0;entryX=0;entryY=0.5;entryDx=0;entryDy=0;" edge="1" parent="1" source="X19s_nvHzqkZ-q4jmWEB-2" target="X19s_nvHzqkZ-q4jmWEB-4">
          <mxGeometry relative="1" as="geometry" />
        </mxCell>
        <mxCell id="X19s_nvHzqkZ-q4jmWEB-2" value="Tokenization" style="rounded=0;whiteSpace=wrap;html=1;fillColor=#dae8fc;strokeColor=#6c8ebf;strokeWidth=3;glass=0;sketch=1;curveFitting=1;jiggle=2;" vertex="1" parent="1">
          <mxGeometry x="190" y="170" width="120" height="60" as="geometry" />
        </mxCell>
        <mxCell id="X19s_nvHzqkZ-q4jmWEB-10" style="edgeStyle=orthogonalEdgeStyle;rounded=0;orthogonalLoop=1;jettySize=auto;html=1;exitX=1;exitY=0.5;exitDx=0;exitDy=0;entryX=0.5;entryY=0;entryDx=0;entryDy=0;" edge="1" parent="1" source="X19s_nvHzqkZ-q4jmWEB-3" target="X19s_nvHzqkZ-q4jmWEB-5">
          <mxGeometry relative="1" as="geometry" />
        </mxCell>
        <mxCell id="X19s_nvHzqkZ-q4jmWEB-3" value="word embeddings" style="rounded=0;whiteSpace=wrap;html=1;fillColor=#dae8fc;strokeColor=#6c8ebf;strokeWidth=3;glass=0;sketch=1;curveFitting=1;jiggle=2;" vertex="1" parent="1">
          <mxGeometry x="350" y="170" width="120" height="60" as="geometry" />
        </mxCell>
        <mxCell id="X19s_nvHzqkZ-q4jmWEB-11" style="edgeStyle=orthogonalEdgeStyle;rounded=0;orthogonalLoop=1;jettySize=auto;html=1;exitX=1;exitY=0.5;exitDx=0;exitDy=0;entryX=0.5;entryY=1;entryDx=0;entryDy=0;" edge="1" parent="1" source="X19s_nvHzqkZ-q4jmWEB-4" target="X19s_nvHzqkZ-q4jmWEB-5">
          <mxGeometry relative="1" as="geometry" />
        </mxCell>
        <mxCell id="X19s_nvHzqkZ-q4jmWEB-4" value="position embedding" style="rounded=0;whiteSpace=wrap;html=1;fillColor=#dae8fc;strokeColor=#6c8ebf;strokeWidth=3;glass=0;sketch=1;curveFitting=1;jiggle=2;" vertex="1" parent="1">
          <mxGeometry x="350" y="270" width="120" height="60" as="geometry" />
        </mxCell>
        <mxCell id="X19s_nvHzqkZ-q4jmWEB-12" style="edgeStyle=orthogonalEdgeStyle;rounded=0;orthogonalLoop=1;jettySize=auto;html=1;exitX=1;exitY=0.5;exitDx=0;exitDy=0;" edge="1" parent="1" source="X19s_nvHzqkZ-q4jmWEB-5" target="X19s_nvHzqkZ-q4jmWEB-6">
          <mxGeometry relative="1" as="geometry" />
        </mxCell>
        <mxCell id="X19s_nvHzqkZ-q4jmWEB-5" value="" style="shape=image;html=1;verticalAlign=top;verticalLabelPosition=bottom;labelBackgroundColor=#ffffff;imageAspect=0;aspect=fixed;image=https://cdn0.iconfinder.com/data/icons/bold-purple-free-samples/32/Add_Circle_Plus_Download-128.png" vertex="1" parent="1">
          <mxGeometry x="500" y="220" width="50" height="50" as="geometry" />
        </mxCell>
        <mxCell id="X19s_nvHzqkZ-q4jmWEB-6" value="Input embedding" style="shape=ext;double=1;rounded=0;whiteSpace=wrap;html=1;fillColor=#dae8fc;strokeColor=#6c8ebf;strokeWidth=3;glass=0;sketch=1;curveFitting=1;jiggle=2;" vertex="1" parent="1">
          <mxGeometry x="610" y="205" width="120" height="80" as="geometry" />
        </mxCell>
      </root>
    </mxGraphModel>
  </diagram>
</mxfile>
